<mxfile host="app.diagrams.net" modified="2024-01-05T07:42:30.034Z" agent="Mozilla/5.0 (Windows NT 10.0; Win64; x64) AppleWebKit/537.36 (KHTML, like Gecko) Chrome/95.0.4638.69 Safari/537.36" etag="88OUsU7eAkl-IsX-vH19" version="22.1.15" type="github">
  <diagram id="C5RBs43oDa-KdzZeNtuy" name="Page-1">
    <mxGraphModel dx="861" dy="504" grid="0" gridSize="10" guides="1" tooltips="1" connect="1" arrows="1" fold="1" page="1" pageScale="1" pageWidth="827" pageHeight="1169" math="0" shadow="0">
      <root>
        <mxCell id="WIyWlLk6GJQsqaUBKTNV-0" />
        <mxCell id="WIyWlLk6GJQsqaUBKTNV-1" parent="WIyWlLk6GJQsqaUBKTNV-0" />
        <mxCell id="JpIcm6Wrq2u5Y_Ei307J-7" style="edgeStyle=orthogonalEdgeStyle;rounded=0;orthogonalLoop=1;jettySize=auto;html=1;exitX=0.5;exitY=1;exitDx=0;exitDy=0;" edge="1" parent="WIyWlLk6GJQsqaUBKTNV-1" source="WIyWlLk6GJQsqaUBKTNV-3">
          <mxGeometry relative="1" as="geometry">
            <mxPoint x="443" y="150" as="targetPoint" />
          </mxGeometry>
        </mxCell>
        <mxCell id="JpIcm6Wrq2u5Y_Ei307J-8" value="添加" style="edgeLabel;html=1;align=center;verticalAlign=middle;resizable=0;points=[];" vertex="1" connectable="0" parent="JpIcm6Wrq2u5Y_Ei307J-7">
          <mxGeometry x="-0.2905" relative="1" as="geometry">
            <mxPoint as="offset" />
          </mxGeometry>
        </mxCell>
        <mxCell id="WIyWlLk6GJQsqaUBKTNV-3" value="自离申请单" style="rounded=1;whiteSpace=wrap;html=1;fontSize=12;glass=0;strokeWidth=1;shadow=0;" parent="WIyWlLk6GJQsqaUBKTNV-1" vertex="1">
          <mxGeometry x="383" y="50" width="120" height="40" as="geometry" />
        </mxCell>
        <mxCell id="a5nCYQqvabExwrjgl8ng-15" style="edgeStyle=orthogonalEdgeStyle;rounded=0;orthogonalLoop=1;jettySize=auto;html=1;exitX=1;exitY=0.5;exitDx=0;exitDy=0;entryX=0;entryY=0.5;entryDx=0;entryDy=0;" parent="WIyWlLk6GJQsqaUBKTNV-1" edge="1">
          <mxGeometry relative="1" as="geometry">
            <mxPoint x="523" y="200" as="sourcePoint" />
            <mxPoint x="597" y="200" as="targetPoint" />
          </mxGeometry>
        </mxCell>
        <mxCell id="a5nCYQqvabExwrjgl8ng-16" style="edgeStyle=orthogonalEdgeStyle;rounded=0;orthogonalLoop=1;jettySize=auto;html=1;exitX=1;exitY=0.5;exitDx=0;exitDy=0;entryX=0;entryY=0.5;entryDx=0;entryDy=0;" parent="WIyWlLk6GJQsqaUBKTNV-1" source="a5nCYQqvabExwrjgl8ng-5" target="a5nCYQqvabExwrjgl8ng-9" edge="1">
          <mxGeometry relative="1" as="geometry">
            <Array as="points">
              <mxPoint x="523" y="200" />
              <mxPoint x="563" y="200" />
              <mxPoint x="563" y="130" />
            </Array>
          </mxGeometry>
        </mxCell>
        <mxCell id="a5nCYQqvabExwrjgl8ng-17" style="edgeStyle=orthogonalEdgeStyle;rounded=0;orthogonalLoop=1;jettySize=auto;html=1;exitX=1;exitY=0.5;exitDx=0;exitDy=0;entryX=0;entryY=0.5;entryDx=0;entryDy=0;" parent="WIyWlLk6GJQsqaUBKTNV-1" source="a5nCYQqvabExwrjgl8ng-5" target="a5nCYQqvabExwrjgl8ng-12" edge="1">
          <mxGeometry relative="1" as="geometry">
            <Array as="points">
              <mxPoint x="523" y="200" />
              <mxPoint x="563" y="200" />
              <mxPoint x="563" y="260" />
              <mxPoint x="597" y="260" />
            </Array>
          </mxGeometry>
        </mxCell>
        <mxCell id="a5nCYQqvabExwrjgl8ng-5" value="黑名单管理" style="rounded=0;whiteSpace=wrap;html=1;fillColor=#fff2cc;strokeColor=#d6b656;" parent="WIyWlLk6GJQsqaUBKTNV-1" vertex="1">
          <mxGeometry x="373" y="160" width="150" height="70" as="geometry" />
        </mxCell>
        <mxCell id="a5nCYQqvabExwrjgl8ng-9" value="查询" style="rounded=1;whiteSpace=wrap;html=1;fontSize=12;glass=0;strokeWidth=1;shadow=0;" parent="WIyWlLk6GJQsqaUBKTNV-1" vertex="1">
          <mxGeometry x="600" y="110" width="120" height="40" as="geometry" />
        </mxCell>
        <mxCell id="a5nCYQqvabExwrjgl8ng-10" value="导出" style="rounded=1;whiteSpace=wrap;html=1;fontSize=12;glass=0;strokeWidth=1;shadow=0;" parent="WIyWlLk6GJQsqaUBKTNV-1" vertex="1">
          <mxGeometry x="600" y="175" width="120" height="40" as="geometry" />
        </mxCell>
        <mxCell id="a5nCYQqvabExwrjgl8ng-12" value="改变状态" style="rounded=1;whiteSpace=wrap;html=1;fontSize=12;glass=0;strokeWidth=1;shadow=0;" parent="WIyWlLk6GJQsqaUBKTNV-1" vertex="1">
          <mxGeometry x="601" y="240" width="120" height="40" as="geometry" />
        </mxCell>
        <mxCell id="JpIcm6Wrq2u5Y_Ei307J-1" style="edgeStyle=orthogonalEdgeStyle;rounded=0;orthogonalLoop=1;jettySize=auto;html=1;exitX=1;exitY=0.5;exitDx=0;exitDy=0;" edge="1" parent="WIyWlLk6GJQsqaUBKTNV-1" source="JpIcm6Wrq2u5Y_Ei307J-0">
          <mxGeometry relative="1" as="geometry">
            <mxPoint x="370" y="200" as="targetPoint" />
          </mxGeometry>
        </mxCell>
        <mxCell id="JpIcm6Wrq2u5Y_Ei307J-10" value="添加" style="edgeLabel;html=1;align=center;verticalAlign=middle;resizable=0;points=[];" vertex="1" connectable="0" parent="JpIcm6Wrq2u5Y_Ei307J-1">
          <mxGeometry x="-0.1093" y="1" relative="1" as="geometry">
            <mxPoint as="offset" />
          </mxGeometry>
        </mxCell>
        <mxCell id="JpIcm6Wrq2u5Y_Ei307J-0" value="离职类型" style="rounded=1;whiteSpace=wrap;html=1;fontSize=12;glass=0;strokeWidth=1;shadow=0;" vertex="1" parent="WIyWlLk6GJQsqaUBKTNV-1">
          <mxGeometry x="170" y="180" width="120" height="40" as="geometry" />
        </mxCell>
        <mxCell id="JpIcm6Wrq2u5Y_Ei307J-6" style="edgeStyle=orthogonalEdgeStyle;rounded=0;orthogonalLoop=1;jettySize=auto;html=1;exitX=0.5;exitY=0;exitDx=0;exitDy=0;" edge="1" parent="WIyWlLk6GJQsqaUBKTNV-1" source="JpIcm6Wrq2u5Y_Ei307J-2">
          <mxGeometry relative="1" as="geometry">
            <mxPoint x="443" y="240" as="targetPoint" />
          </mxGeometry>
        </mxCell>
        <mxCell id="JpIcm6Wrq2u5Y_Ei307J-9" value="添加" style="edgeLabel;html=1;align=center;verticalAlign=middle;resizable=0;points=[];" vertex="1" connectable="0" parent="JpIcm6Wrq2u5Y_Ei307J-6">
          <mxGeometry x="0.1507" y="2" relative="1" as="geometry">
            <mxPoint as="offset" />
          </mxGeometry>
        </mxCell>
        <mxCell id="JpIcm6Wrq2u5Y_Ei307J-2" value="黑名单申报单" style="rounded=1;whiteSpace=wrap;html=1;fontSize=12;glass=0;strokeWidth=1;shadow=0;" vertex="1" parent="WIyWlLk6GJQsqaUBKTNV-1">
          <mxGeometry x="383" y="310" width="120" height="40" as="geometry" />
        </mxCell>
        <mxCell id="JpIcm6Wrq2u5Y_Ei307J-13" style="edgeStyle=orthogonalEdgeStyle;rounded=0;orthogonalLoop=1;jettySize=auto;html=1;exitX=0.5;exitY=0;exitDx=0;exitDy=0;entryX=0.5;entryY=1;entryDx=0;entryDy=0;dashed=1;" edge="1" parent="WIyWlLk6GJQsqaUBKTNV-1" source="JpIcm6Wrq2u5Y_Ei307J-12" target="JpIcm6Wrq2u5Y_Ei307J-0">
          <mxGeometry relative="1" as="geometry" />
        </mxCell>
        <mxCell id="JpIcm6Wrq2u5Y_Ei307J-12" value="&lt;p class=&quot;MsoNormal&quot;&gt;7天考核不合格、&lt;span style=&quot;background-color: initial;&quot;&gt;试用期不合格、辞退、自离、&lt;/span&gt;协商一致解除劳动合同&lt;/p&gt;" style="shape=document;whiteSpace=wrap;html=1;boundedLbl=1;align=left;" vertex="1" parent="WIyWlLk6GJQsqaUBKTNV-1">
          <mxGeometry x="169" y="261" width="122" height="89" as="geometry" />
        </mxCell>
      </root>
    </mxGraphModel>
  </diagram>
</mxfile>
